<svg width="3325" height="1873" viewBox="0 0 3325 1873" fill="none" xmlns="http://www.w3.org/2000/svg">
<g clip-path="url(#clip0_14_210)">
<rect width="3325" height="1873" fill="white"/>
<path d="M-146.272 75.7466C-150.557 73.7881 -150.557 67.7007 -146.272 65.7422L4128.16 -1888.09C4131.8 -1889.75 4135.95 -1887.09 4135.95 -1883.09V2024.57C4135.95 2028.58 4131.8 2031.24 4128.16 2029.58L-146.272 75.7466Z" stroke="url(#paint0_linear_14_210)" stroke-width="3"/>
<path d="M-142.043 192.124C-146.452 190.343 -146.86 184.274 -142.714 182.144L3994.78 -1943.52C3998.31 -1945.33 4002.63 -1942.84 4002.9 -1938.84L4265.07 1963.47C4265.34 1967.46 4261.38 1970.29 4257.62 1968.77L-142.043 192.124Z" stroke="url(#paint1_linear_14_210)" stroke-width="3"/>
<path d="M-138.906 230.857C-143.353 229.138 -143.896 223.083 -139.798 220.897L3949.51 -1960.77C3953 -1962.63 3957.38 -1960.21 3957.74 -1956.21L4307.18 1941.94C4307.54 1945.93 4303.63 1948.81 4299.85 1947.34L-138.906 230.858L-139.408 232.25L-138.906 230.857Z" stroke="url(#paint2_linear_14_210)" stroke-width="3"/>
<path d="M-130.045 308.163C-134.563 306.566 -135.374 300.552 -131.38 298.258L3857.85 -1993.42C3861.25 -1995.37 3865.75 -1993.07 3866.29 -1989.1L4389.92 1897.18C4390.45 1901.15 4386.67 1904.13 4382.81 1902.77L-130.045 308.163Z" stroke="url(#paint3_linear_14_210)" stroke-width="3"/>
<path d="M-102.019 461.811C-106.659 460.467 -107.99 454.581 -104.218 452.08L3670.4 -2051.11C3673.64 -2053.26 3678.36 -2051.23 3679.24 -2047.31L4549.14 1801.05C4550.02 1804.97 4546.48 1808.14 4542.49 1806.98L-102.019 461.811Z" stroke="url(#paint4_linear_14_210)" stroke-width="3"/>
<path d="M-82.8847 537.961C-87.5755 536.746 -89.1563 530.944 -85.5046 528.346L3574.85 -2076.1C3578 -2078.34 3582.82 -2076.45 3583.88 -2072.57L4625.43 1749.79C4626.48 1753.68 4623.06 1756.93 4619.01 1755.88L-82.8847 537.961Z" stroke="url(#paint5_linear_14_210)" stroke-width="3"/>
<path d="M-34.3555 688.455C-39.1263 687.502 -41.1817 681.911 -37.7834 679.13L3380.81 -2118.19C3383.77 -2120.61 3388.8 -2119.04 3390.2 -2115.24L4771.04 1641.2C4772.43 1644.99 4769.24 1648.41 4765.08 1647.57L-34.3555 688.455Z" stroke="url(#paint6_linear_14_210)" stroke-width="3"/>
<path d="M10.6787 799.417C5.86649 798.662 3.48186 793.26 6.67826 790.354L3232.95 -2142.74C3235.77 -2145.3 3240.94 -2143.96 3242.58 -2140.25L4873.58 1554.72C4875.21 1558.43 4872.19 1561.96 4867.96 1561.29L10.6787 799.417Z" stroke="url(#paint7_linear_14_210)" stroke-width="3"/>
<path d="M122.698 1015.09C117.85 1014.74 114.883 1009.77 117.65 1006.65L2933.3 -2173.54C2935.8 -2176.36 2941.21 -2175.55 2943.31 -2172.04L5060.56 1369.81C5062.66 1373.32 5059.98 1377.07 5055.6 1376.75L122.698 1015.09Z" stroke="url(#paint8_linear_14_210)" stroke-width="3"/>
<path d="M237.679 1187.07C232.849 1187.04 229.482 1182.49 231.869 1179.22L2681.54 -2180.37C2683.75 -2183.4 2689.31 -2183.06 2691.77 -2179.74L5196.75 1204.75C5199.2 1208.07 5196.8 1212 5192.33 1211.98L237.679 1187.07Z" stroke="url(#paint9_linear_14_210)" stroke-width="3"/>
<path d="M522.928 1504.43C518.258 1505.05 514.312 1501.38 515.904 1497.9L2180.53 -2142.57C2182.09 -2145.98 2187.82 -2146.66 2190.9 -2143.8L5411.34 850.052C5414.42 852.915 5412.57 857.199 5407.99 857.804L522.928 1504.43Z" stroke="url(#paint10_linear_14_210)" stroke-width="3"/>
<path d="M874.562 1778.42C870.198 1779.63 865.934 1776.84 866.709 1773.28L1695.65 -2037.36C1696.46 -2041.09 1702.11 -2042.84 1705.7 -2040.49L5543.66 471.639C5547.25 473.991 5546.02 478.638 5541.46 479.907L874.562 1778.42Z" stroke="url(#paint11_linear_14_210)" stroke-width="3"/>
<path d="M1281.98 2000.65C1278.05 2002.39 1273.65 2000.41 1273.62 1996.88L1241.69 -1868.02C1241.66 -1871.95 1246.95 -1874.8 1250.95 -1873L5589.67 81.0246C5593.67 82.8253 5593.16 87.8249 5588.77 89.7695L1281.98 2000.65Z" stroke="url(#paint12_linear_14_210)" stroke-width="3"/>
</g>
<defs>
<linearGradient id="paint0_linear_14_210" x1="-160.824" y1="70.7444" x2="5570.2" y2="70.7444" gradientUnits="userSpaceOnUse">
<stop stop-color="#1269C5"/>
<stop offset="1" stop-color="#09325F"/>
</linearGradient>
<linearGradient id="paint1_linear_14_210" x1="-156.895" y1="187.728" x2="5556.21" y2="-196.103" gradientUnits="userSpaceOnUse">
<stop stop-color="#1269C5"/>
<stop offset="1" stop-color="#09325F"/>
</linearGradient>
<linearGradient id="paint2_linear_14_210" x1="-153.842" y1="226.668" x2="5545.38" y2="-284.226" gradientUnits="userSpaceOnUse">
<stop stop-color="#1269C5"/>
<stop offset="1" stop-color="#09325F"/>
</linearGradient>
<linearGradient id="paint3_linear_14_210" x1="-145.127" y1="304.392" x2="5514.72" y2="-458.206" gradientUnits="userSpaceOnUse">
<stop stop-color="#1269C5"/>
<stop offset="1" stop-color="#09325F"/>
</linearGradient>
<linearGradient id="paint4_linear_14_210" x1="-117.293" y1="458.895" x2="5419.25" y2="-792.599" gradientUnits="userSpaceOnUse">
<stop stop-color="#1269C5"/>
<stop offset="1" stop-color="#09325F"/>
</linearGradient>
<linearGradient id="paint5_linear_14_210" x1="-98.2067" y1="535.477" x2="5355.89" y2="-950.694" gradientUnits="userSpaceOnUse">
<stop stop-color="#1269C5"/>
<stop offset="1" stop-color="#09325F"/>
</linearGradient>
<linearGradient id="paint6_linear_14_210" x1="-49.68" y1="686.837" x2="5202.59" y2="-1243.86" gradientUnits="userSpaceOnUse">
<stop stop-color="#1269C5"/>
<stop offset="1" stop-color="#09325F"/>
</linearGradient>
<linearGradient id="paint7_linear_14_210" x1="-4.5686" y1="798.443" x2="5068.27" y2="-1440.76" gradientUnits="userSpaceOnUse">
<stop stop-color="#1269C5"/>
<stop offset="1" stop-color="#09325F"/>
</linearGradient>
<linearGradient id="paint8_linear_14_210" x1="107.788" y1="1015.38" x2="4766.51" y2="-1769.53" gradientUnits="userSpaceOnUse">
<stop stop-color="#1269C5"/>
<stop offset="1" stop-color="#09325F"/>
</linearGradient>
<linearGradient id="paint9_linear_14_210" x1="223.217" y1="1188.35" x2="4498.72" y2="-1976.1" gradientUnits="userSpaceOnUse">
<stop stop-color="#1269C5"/>
<stop offset="1" stop-color="#09325F"/>
</linearGradient>
<linearGradient id="paint10_linear_14_210" x1="509.71" y1="1507.52" x2="3977.95" y2="-2223.21" gradientUnits="userSpaceOnUse">
<stop stop-color="#1269C5"/>
<stop offset="1" stop-color="#09325F"/>
</linearGradient>
<linearGradient id="paint11_linear_14_210" x1="862.906" y1="1783.03" x2="3537.08" y2="-2302.48" gradientUnits="userSpaceOnUse">
<stop stop-color="#1269C5"/>
<stop offset="1" stop-color="#09325F"/>
</linearGradient>
<linearGradient id="paint12_linear_14_210" x1="1272.07" y1="2006.51" x2="3204.9" y2="-2285.15" gradientUnits="userSpaceOnUse">
<stop stop-color="#1269C5"/>
<stop offset="1" stop-color="#09325F"/>
</linearGradient>
<clipPath id="clip0_14_210">
<rect width="3325" height="1873" fill="white"/>
</clipPath>
</defs>
</svg>
