{"buffers":[{"uri":"bi.bin","byteLength":9267744}],"asset":{"version":"2.0","generator":"gltfpack 0.20"},"extensionsUsed":["KHR_mesh_quantization"],"extensionsRequired":["KHR_mesh_quantization"],"bufferViews":[{"buffer":0,"byteOffset":0,"byteLength":2511648,"byteStride":8,"target":34962},{"buffer":0,"byteOffset":2511648,"byteLength":6756096,"target":34963}],"accessors":[{"bufferView":0,"byteOffset":0,"componentType":5123,"count":313956,"type":"VEC3","min":[0,0,0],"max":[4867,16383,12982]},{"bufferView":1,"byteOffset":0,"componentType":5125,"count":1689024,"type":"SCALAR"}],"meshes":[{"primitives":[{"attributes":{"POSITION":0},"indices":1}]}],"nodes":[{"mesh":0,"translation":[-0.208319783,0.593902588,0.0244937539],"scale":[3.0332335e-06,3.0332335e-06,3.0332335e-06]}],"scenes":[{"nodes":[0]}]}