{"buffers":[{"uri":"Insalation_2.bin","byteLength":485416}],"asset":{"version":"2.0","generator":"gltfpack 0.20"},"extensionsUsed":["KHR_mesh_quantization"],"extensionsRequired":["KHR_mesh_quantization"],"bufferViews":[{"buffer":0,"byteOffset":0,"byteLength":118024,"byteStride":8,"target":34962},{"buffer":0,"byteOffset":118024,"byteLength":367392,"target":34963}],"accessors":[{"bufferView":0,"byteOffset":0,"componentType":5123,"count":2163,"type":"VEC3","min":[8,0,8],"max":[16375,6669,14530]},{"bufferView":1,"byteOffset":0,"componentType":5123,"count":12840,"type":"SCALAR"},{"bufferView":0,"byteOffset":17304,"componentType":5123,"count":4358,"type":"VEC3","min":[8,0,0],"max":[16375,6669,13661]},{"bufferView":1,"byteOffset":25680,"componentType":5123,"count":55944,"type":"SCALAR"},{"bufferView":0,"byteOffset":52168,"componentType":5123,"count":8198,"type":"VEC3","min":[0,0,8],"max":[16383,6669,14538]},{"bufferView":1,"byteOffset":137568,"componentType":5123,"count":114696,"type":"SCALAR"},{"bufferView":0,"byteOffset":117752,"componentType":5123,"count":34,"type":"VEC3","min":[2677,0,1140],"max":[8711,1143,5399]},{"bufferView":1,"byteOffset":366960,"componentType":5123,"count":216,"type":"SCALAR"}],"materials":[{"name":"Инсоляция","pbrMetallicRoughness":{"metallicFactor":0}},{"name":"Красный","pbrMetallicRoughness":{"baseColorFactor":[1,0,0,1],"metallicFactor":0}},{"name":"Зеленый","pbrMetallicRoughness":{"baseColorFactor":[0,1,0,1],"metallicFactor":0}},{"name":"Желтый","pbrMetallicRoughness":{"baseColorFactor":[1,1,0,1],"metallicFactor":0}}],"meshes":[{"primitives":[{"attributes":{"POSITION":0},"indices":1,"material":0},{"attributes":{"POSITION":2},"indices":3,"material":1},{"attributes":{"POSITION":4},"indices":5,"material":2},{"attributes":{"POSITION":6},"indices":7,"material":3}]}],"nodes":[{"mesh":0,"translation":[-128.981262,0.302712083,-114.459122],"scale":[0.0157457441,0.0157457441,0.0157457441]}],"scenes":[{"nodes":[0]}]}