{"buffers":[{"uri":"Insalation_2.bin","byteLength":485552}],"asset":{"version":"2.0","generator":"gltfpack 0.20"},"extensionsUsed":["KHR_mesh_quantization"],"extensionsRequired":["KHR_mesh_quantization"],"bufferViews":[{"buffer":0,"byteOffset":0,"byteLength":118088,"byteStride":8,"target":34962},{"buffer":0,"byteOffset":118088,"byteLength":367464,"target":34963}],"accessors":[{"bufferView":0,"byteOffset":0,"componentType":5123,"count":2171,"type":"VEC3","min":[0,0,0],"max":[13023,4419,16383]},{"bufferView":1,"byteOffset":0,"componentType":5123,"count":12876,"type":"SCALAR"},{"bufferView":0,"byteOffset":17368,"componentType":5123,"count":4358,"type":"VEC3","min":[1461,8,3272],"max":[12287,4419,12308]},{"bufferView":1,"byteOffset":25752,"componentType":5123,"count":55944,"type":"SCALAR"},{"bufferView":0,"byteOffset":52232,"componentType":5123,"count":8198,"type":"VEC3","min":[1456,8,3277],"max":[12293,4419,12888]},{"bufferView":1,"byteOffset":137640,"componentType":5123,"count":114696,"type":"SCALAR"},{"bufferView":0,"byteOffset":117816,"componentType":5123,"count":34,"type":"VEC3","min":[3227,9,4026],"max":[7218,765,6843]},{"bufferView":1,"byteOffset":367032,"componentType":5123,"count":216,"type":"SCALAR"}],"materials":[{"name":"Инсоляция","pbrMetallicRoughness":{"metallicFactor":0}},{"name":"Красный","pbrMetallicRoughness":{"baseColorFactor":[1,0,0,1],"metallicFactor":0}},{"name":"Зеленый","pbrMetallicRoughness":{"baseColorFactor":[0,1,0,1],"metallicFactor":0}},{"name":"Желтый","pbrMetallicRoughness":{"baseColorFactor":[1,1,0,1],"metallicFactor":0}}],"meshes":[{"primitives":[{"attributes":{"POSITION":0},"indices":1,"material":0},{"attributes":{"POSITION":2},"indices":3,"material":1},{"attributes":{"POSITION":4},"indices":5,"material":2},{"attributes":{"POSITION":6},"indices":7,"material":3}]}],"nodes":[{"mesh":0,"translation":[-155,0.781114101,-194.996185],"scale":[0.0238047056,0.0238047056,0.0238047056]}],"scenes":[{"nodes":[0]}]}