{"buffers":[{"uri":"Insalation_2.bin","byteLength":291744}],"asset":{"version":"2.0","generator":"gltfpack 0.20"},"extensionsUsed":["KHR_mesh_quantization"],"extensionsRequired":["KHR_mesh_quantization"],"bufferViews":[{"buffer":0,"byteOffset":0,"byteLength":73128,"byteStride":8,"target":34962},{"buffer":0,"byteOffset":73128,"byteLength":218616,"target":34963}],"accessors":[{"bufferView":0,"byteOffset":0,"componentType":5123,"count":64,"type":"VEC3","min":[4105,0,3597],"max":[16383,3497,14537]},{"bufferView":1,"byteOffset":0,"componentType":5123,"count":336,"type":"SCALAR"},{"bufferView":0,"byteOffset":512,"componentType":5123,"count":3091,"type":"VEC3","min":[0,0,0],"max":[15428,6675,13127]},{"bufferView":1,"byteOffset":672,"componentType":5123,"count":18444,"type":"SCALAR"},{"bufferView":0,"byteOffset":25240,"componentType":5123,"count":1684,"type":"VEC3","min":[210,0,8411],"max":[7043,6357,13085]},{"bufferView":1,"byteOffset":37560,"componentType":5123,"count":23904,"type":"SCALAR"},{"bufferView":0,"byteOffset":38712,"componentType":5123,"count":4154,"type":"VEC3","min":[202,0,8419],"max":[7080,6357,13135]},{"bufferView":1,"byteOffset":85368,"componentType":5123,"count":65088,"type":"SCALAR"},{"bufferView":0,"byteOffset":71944,"componentType":5123,"count":148,"type":"VEC3","min":[0,0,0],"max":[13968,6675,13127]},{"bufferView":1,"byteOffset":215544,"componentType":5123,"count":1536,"type":"SCALAR"}],"materials":[{"name":"Инсоляция","pbrMetallicRoughness":{"baseColorFactor":[1,1,1,0.699999988],"metallicFactor":0,"roughnessFactor":0.5},"alphaMode":"BLEND"},{"name":"Красный","pbrMetallicRoughness":{"baseColorFactor":[1,0,0,1],"metallicFactor":0}},{"name":"Зеленый","pbrMetallicRoughness":{"baseColorFactor":[0,1,0,1],"metallicFactor":0}},{"name":"Dynamo","pbrMetallicRoughness":{"baseColorFactor":[1,0.501960814,0,0.100000024],"metallicFactor":0,"roughnessFactor":0.5},"alphaMode":"BLEND"}],"meshes":[{"primitives":[{"attributes":{"POSITION":0},"indices":1},{"attributes":{"POSITION":2},"indices":3,"material":0},{"attributes":{"POSITION":4},"indices":5,"material":1},{"attributes":{"POSITION":6},"indices":7,"material":2},{"attributes":{"POSITION":8},"indices":9,"material":3}]}],"nodes":[{"mesh":0,"translation":[-128.85083,1.6627146,-114.32869],"scale":[0.0157298204,0.0157298204,0.0157298204]}],"scenes":[{"nodes":[0]}]}