{"buffers":[{"uri":"Insalation_2.bin","byteLength":1172224}],"asset":{"version":"2.0","generator":"gltfpack 0.20"},"extensionsUsed":["KHR_mesh_quantization"],"extensionsRequired":["KHR_mesh_quantization"],"bufferViews":[{"buffer":0,"byteOffset":0,"byteLength":260248,"byteStride":8,"target":34962},{"buffer":0,"byteOffset":260248,"byteLength":911976,"target":34963}],"accessors":[{"bufferView":0,"byteOffset":0,"componentType":5123,"count":3155,"type":"VEC3","min":[8,0,8],"max":[16375,6669,14530]},{"bufferView":1,"byteOffset":0,"componentType":5123,"count":18780,"type":"SCALAR"},{"bufferView":0,"byteOffset":25240,"componentType":5123,"count":7890,"type":"VEC3","min":[8,0,0],"max":[13970,6669,13080]},{"bufferView":1,"byteOffset":37560,"componentType":5123,"count":110808,"type":"SCALAR"},{"bufferView":0,"byteOffset":88360,"componentType":5123,"count":21210,"type":"VEC3","min":[0,0,8],"max":[16383,6669,14538]},{"bufferView":1,"byteOffset":259176,"componentType":5123,"count":323640,"type":"SCALAR"},{"bufferView":0,"byteOffset":258040,"componentType":5123,"count":128,"type":"VEC3","min":[2674,0,1013],"max":[8717,1524,8484]},{"bufferView":1,"byteOffset":906456,"componentType":5123,"count":1224,"type":"SCALAR"},{"bufferView":0,"byteOffset":259064,"componentType":5123,"count":148,"type":"VEC3","min":[8,0,8],"max":[13963,6669,13122]},{"bufferView":1,"byteOffset":908904,"componentType":5123,"count":1536,"type":"SCALAR"}],"materials":[{"name":"Инсоляция","pbrMetallicRoughness":{"metallicFactor":0}},{"name":"Красный","pbrMetallicRoughness":{"baseColorFactor":[1,0,0,1],"metallicFactor":0}},{"name":"Зеленый","pbrMetallicRoughness":{"baseColorFactor":[0,1,0,1],"metallicFactor":0}},{"name":"Желтый","pbrMetallicRoughness":{"baseColorFactor":[1,1,0,1],"metallicFactor":0}},{"name":"Dynamo","pbrMetallicRoughness":{"baseColorFactor":[1,0.501960814,0,0.100000024],"metallicFactor":0,"roughnessFactor":0.5},"alphaMode":"BLEND"}],"meshes":[{"primitives":[{"attributes":{"POSITION":0},"indices":1,"material":0},{"attributes":{"POSITION":2},"indices":3,"material":1},{"attributes":{"POSITION":4},"indices":5,"material":2},{"attributes":{"POSITION":6},"indices":7,"material":3},{"attributes":{"POSITION":8},"indices":9,"material":4}]}],"nodes":[{"mesh":0,"translation":[-128.981262,1.6627121,-114.459122],"scale":[0.0157457441,0.0157457441,0.0157457441]}],"scenes":[{"nodes":[0]}]}