{"buffers":[{"uri":"Insalation_2.bin","byteLength":287488}],"asset":{"version":"2.0","generator":"gltfpack 0.20"},"extensionsUsed":["KHR_mesh_quantization"],"extensionsRequired":["KHR_mesh_quantization"],"bufferViews":[{"buffer":0,"byteOffset":0,"byteLength":71944,"byteStride":8,"target":34962},{"buffer":0,"byteOffset":71944,"byteLength":215544,"target":34963}],"accessors":[{"bufferView":0,"byteOffset":0,"componentType":5123,"count":3155,"type":"VEC3","min":[0,0,0],"max":[16383,6675,14537]},{"bufferView":1,"byteOffset":0,"componentType":5123,"count":18780,"type":"SCALAR"},{"bufferView":0,"byteOffset":25240,"componentType":5123,"count":1684,"type":"VEC3","min":[210,0,8411],"max":[7043,6357,13085]},{"bufferView":1,"byteOffset":37560,"componentType":5123,"count":23904,"type":"SCALAR"},{"bufferView":0,"byteOffset":38712,"componentType":5123,"count":4154,"type":"VEC3","min":[202,0,8419],"max":[7080,6357,13135]},{"bufferView":1,"byteOffset":85368,"componentType":5123,"count":65088,"type":"SCALAR"}],"materials":[{"name":"Инсоляция","pbrMetallicRoughness":{"metallicFactor":0}},{"name":"Красный","pbrMetallicRoughness":{"baseColorFactor":[1,0,0,1],"metallicFactor":0}},{"name":"Зеленый","pbrMetallicRoughness":{"baseColorFactor":[0,1,0,1],"metallicFactor":0}}],"meshes":[{"primitives":[{"attributes":{"POSITION":0},"indices":1,"material":0},{"attributes":{"POSITION":2},"indices":3,"material":1},{"attributes":{"POSITION":4},"indices":5,"material":2}]}],"nodes":[{"mesh":0,"translation":[-128.85083,1.6627146,-114.32869],"scale":[0.0157298204,0.0157298204,0.0157298204]}],"scenes":[{"nodes":[0]}]}