{"buffers":[{"uri":"kas_fasad.bin","byteLength":9514912}],"asset":{"version":"2.0","generator":"gltfpack 0.20"},"extensionsUsed":["KHR_mesh_quantization"],"extensionsRequired":["KHR_mesh_quantization"],"bufferViews":[{"buffer":0,"byteOffset":0,"byteLength":3466184,"byteStride":8,"target":34962},{"buffer":0,"byteOffset":3466184,"byteLength":1143234,"target":34963},{"buffer":0,"byteOffset":4609420,"byteLength":4905492,"target":34963}],"accessors":[{"bufferView":0,"byteOffset":0,"componentType":5123,"count":9561,"type":"VEC3","min":[13,1320,8],"max":[15183,10490,6437]},{"bufferView":1,"byteOffset":0,"componentType":5123,"count":52308,"type":"SCALAR"},{"bufferView":0,"byteOffset":76488,"componentType":5123,"count":7119,"type":"VEC3","min":[13,1320,23],"max":[15183,10490,6437]},{"bufferView":1,"byteOffset":104616,"componentType":5123,"count":26127,"type":"SCALAR"},{"bufferView":0,"byteOffset":133440,"componentType":5123,"count":150,"type":"VEC3","min":[5633,1713,6189],"max":[11358,1943,6377]},{"bufferView":1,"byteOffset":156870,"componentType":5123,"count":876,"type":"SCALAR"},{"bufferView":0,"byteOffset":134640,"componentType":5123,"count":8160,"type":"VEC3","min":[1369,1979,2852],"max":[14890,8839,6515]},{"bufferView":1,"byteOffset":158622,"componentType":5123,"count":63702,"type":"SCALAR"},{"bufferView":0,"byteOffset":199920,"componentType":5123,"count":343656,"type":"VEC3","min":[852,1914,267],"max":[15205,10013,6548]},{"bufferView":2,"byteOffset":0,"componentType":5125,"count":1226373,"type":"SCALAR"},{"bufferView":0,"byteOffset":2949168,"componentType":5123,"count":2405,"type":"VEC3","min":[1184,2338,3294],"max":[14925,9936,6411]},{"bufferView":1,"byteOffset":286026,"componentType":5123,"count":7473,"type":"SCALAR"},{"bufferView":0,"byteOffset":2968408,"componentType":5123,"count":12472,"type":"VEC3","min":[0,1321,0],"max":[15208,10517,6461]},{"bufferView":1,"byteOffset":300972,"componentType":5123,"count":89157,"type":"SCALAR"},{"bufferView":0,"byteOffset":3068184,"componentType":5123,"count":546,"type":"VEC3","min":[1331,1890,3224],"max":[15151,8609,6437]},{"bufferView":1,"byteOffset":479286,"componentType":5123,"count":2445,"type":"SCALAR"},{"bufferView":0,"byteOffset":3072552,"componentType":5123,"count":5281,"type":"VEC3","min":[2128,1880,5],"max":[14789,8900,6428]},{"bufferView":1,"byteOffset":484176,"componentType":5123,"count":30246,"type":"SCALAR"},{"bufferView":0,"byteOffset":3114800,"componentType":5123,"count":44,"type":"VEC3","min":[4040,1454,28],"max":[5756,1655,788]},{"bufferView":1,"byteOffset":544668,"componentType":5123,"count":282,"type":"SCALAR"},{"bufferView":0,"byteOffset":3115152,"componentType":5123,"count":1359,"type":"VEC3","min":[1128,2369,3294],"max":[14169,9183,6411]},{"bufferView":1,"byteOffset":545232,"componentType":5123,"count":4581,"type":"SCALAR"},{"bufferView":0,"byteOffset":3126024,"componentType":5123,"count":1184,"type":"VEC3","min":[1658,2547,3206],"max":[14418,9150,6495]},{"bufferView":1,"byteOffset":554394,"componentType":5123,"count":5328,"type":"SCALAR"},{"bufferView":0,"byteOffset":3135496,"componentType":5123,"count":450,"type":"VEC3","min":[4331,2369,3294],"max":[12619,9183,3345]},{"bufferView":1,"byteOffset":565050,"componentType":5123,"count":2208,"type":"SCALAR"},{"bufferView":0,"byteOffset":3139096,"componentType":5123,"count":40880,"type":"VEC3","min":[3,0,11],"max":[16383,10490,7666]},{"bufferView":1,"byteOffset":569466,"componentType":5123,"count":286872,"type":"SCALAR"},{"bufferView":0,"byteOffset":3466136,"componentType":5123,"count":6,"type":"VEC3","min":[5170,9669,3341],"max":[5208,9769,3341]},{"bufferView":1,"byteOffset":1143210,"componentType":5123,"count":12,"type":"SCALAR"}],"materials":[{"name":"!MD_White hills Лондон брик (серо-голубой)","pbrMetallicRoughness":{"baseColorFactor":[0.501960814,0.498039216,0.498039216,1],"metallicFactor":0}},{"name":"ADSK_Изоляция_Воздух","pbrMetallicRoughness":{"baseColorFactor":[1,1,1,0],"metallicFactor":0,"roughnessFactor":0.5},"alphaMode":"BLEND"},{"name":"_GAFA_Аллюминий_Окна","pbrMetallicRoughness":{"baseColorFactor":[0.278431386,0.294117659,0.313725501,1],"metallicFactor":0}},{"name":"MD_Линеарные панели_Руст_RAL 7024","pbrMetallicRoughness":{"baseColorFactor":[0.180392161,0.196078435,0.203921571,1],"metallicFactor":0}},{"name":"!MD_SIBALUX_Светлый дуб 1500(h)","pbrMetallicRoughness":{"baseColorFactor":[0.643137276,0.58431375,0.490196079,1],"metallicFactor":0}},{"name":"!MD_White hills Лондон брик (F300-40_Золотисто-коричневый)","pbrMetallicRoughness":{"baseColorFactor":[0.741176486,0.662745118,0.490196079,1],"metallicFactor":0}},{"name":"MD_RAL_7011_220_Железно-серый_Откос","pbrMetallicRoughness":{"baseColorFactor":[0.333333343,0.36470589,0.380392164,1],"metallicFactor":0}},{"name":"MD_RAL_7001_Серебристо-серый","pbrMetallicRoughness":{"baseColorFactor":[0.56078434,0.600000024,0.623529434,1],"metallicFactor":0}},{"name":"MD_Витражный и оконный профиль_RAL 7024","pbrMetallicRoughness":{"baseColorFactor":[0.270588249,0.286274523,0.305882365,1],"metallicFactor":0}},{"name":"ADSK_Штукатурка_Шероховатая белая","pbrMetallicRoughness":{"baseColorFactor":[0.972549021,0.972549021,0.972549021,1],"metallicFactor":0}},{"name":"MD_Стальные фасадные кассеты_RAL 7021","pbrMetallicRoughness":{"baseColorFactor":[0.215686277,0.247058824,0.262745112,1],"metallicFactor":0}},{"name":"ADSK_Полимеры_Поликарбонат прозрачный","pbrMetallicRoughness":{"baseColorFactor":[0.874509811,0.874509811,0.874509811,0.800000012],"metallicFactor":0,"roughnessFactor":0.5},"alphaMode":"BLEND"},{"name":"MD_RAL_7016_230_Антрацитово-серый_Откос","pbrMetallicRoughness":{"baseColorFactor":[0.278431386,0.290196091,0.313725501,1],"metallicFactor":0}},{"name":"01 Бетон_МЖБ_В30 W8 F200","pbrMetallicRoughness":{"baseColorFactor":[0.752941191,0.752941191,0.752941191,1],"metallicFactor":0}},{"name":"03_Изоляция_УТПпп Пенополистирол","pbrMetallicRoughness":{"baseColorFactor":[0.80392158,0.80392158,0.80392158,1],"metallicFactor":0}}],"meshes":[{"primitives":[{"attributes":{"POSITION":0},"indices":1,"material":0},{"attributes":{"POSITION":2},"indices":3,"material":1},{"attributes":{"POSITION":4},"indices":5,"material":2},{"attributes":{"POSITION":6},"indices":7,"material":3},{"attributes":{"POSITION":8},"indices":9,"material":4},{"attributes":{"POSITION":10},"indices":11,"material":5},{"attributes":{"POSITION":12},"indices":13,"material":6},{"attributes":{"POSITION":14},"indices":15,"material":7},{"attributes":{"POSITION":16},"indices":17,"material":8},{"attributes":{"POSITION":18},"indices":19,"material":9},{"attributes":{"POSITION":20},"indices":21,"material":10},{"attributes":{"POSITION":22},"indices":23,"material":11},{"attributes":{"POSITION":24},"indices":25,"material":12},{"attributes":{"POSITION":26},"indices":27,"material":13},{"attributes":{"POSITION":28},"indices":29,"material":14}]}],"nodes":[{"mesh":0,"translation":[-42.681694,23.6503639,-19.9247093],"scale":[0.00522584422,0.00522584422,0.00522584422]}],"scenes":[{"nodes":[0]}]}