{"buffers":[{"uri":"kav_flour.bin","byteLength":15648784}],"asset":{"version":"2.0","generator":"gltfpack 0.20"},"extensionsUsed":["KHR_mesh_quantization"],"extensionsRequired":["KHR_mesh_quantization"],"bufferViews":[{"buffer":0,"byteOffset":0,"byteLength":5051192,"byteStride":8,"target":34962},{"buffer":0,"byteOffset":5051192,"byteLength":3115782,"target":34963},{"buffer":0,"byteOffset":8166976,"byteLength":7481808,"target":34963}],"accessors":[{"bufferView":0,"byteOffset":0,"componentType":5123,"count":2094,"type":"VEC3","min":[316,0,316],"max":[15912,1072,12353]},{"bufferView":1,"byteOffset":0,"componentType":5123,"count":10677,"type":"SCALAR"},{"bufferView":0,"byteOffset":16752,"componentType":5123,"count":461,"type":"VEC3","min":[356,0,356],"max":[15872,1072,12313]},{"bufferView":1,"byteOffset":21354,"componentType":5123,"count":1089,"type":"SCALAR"},{"bufferView":0,"byteOffset":20440,"componentType":5123,"count":1446,"type":"VEC3","min":[1245,153,571],"max":[15656,1072,12098]},{"bufferView":1,"byteOffset":23532,"componentType":5123,"count":7641,"type":"SCALAR"},{"bufferView":0,"byteOffset":32008,"componentType":5123,"count":270251,"type":"VEC3","min":[481,0,481],"max":[16243,1072,12549]},{"bufferView":2,"byteOffset":0,"componentType":5125,"count":1447635,"type":"SCALAR"},{"bufferView":0,"byteOffset":2194016,"componentType":5123,"count":1851,"type":"VEC3","min":[847,0,571],"max":[15631,1072,12098]},{"bufferView":1,"byteOffset":38814,"componentType":5123,"count":11076,"type":"SCALAR"},{"bufferView":0,"byteOffset":2208824,"componentType":5123,"count":831,"type":"VEC3","min":[530,0,530],"max":[15698,1072,12139]},{"bufferView":1,"byteOffset":60966,"componentType":5123,"count":3669,"type":"SCALAR"},{"bufferView":0,"byteOffset":2215472,"componentType":5123,"count":1548,"type":"VEC3","min":[1245,153,2245],"max":[13883,1072,10524]},{"bufferView":1,"byteOffset":68304,"componentType":5123,"count":9696,"type":"SCALAR"},{"bufferView":0,"byteOffset":2227856,"componentType":5123,"count":2546,"type":"VEC3","min":[316,0,316],"max":[15912,1072,12353]},{"bufferView":1,"byteOffset":87696,"componentType":5123,"count":12732,"type":"SCALAR"},{"bufferView":0,"byteOffset":2248224,"componentType":5123,"count":5711,"type":"VEC3","min":[571,203,571],"max":[15656,1072,12098]},{"bufferView":1,"byteOffset":113160,"componentType":5123,"count":35658,"type":"SCALAR"},{"bufferView":0,"byteOffset":2293912,"componentType":5123,"count":6040,"type":"VEC3","min":[2635,203,1743],"max":[13479,1072,10895]},{"bufferView":1,"byteOffset":184476,"componentType":5123,"count":36588,"type":"SCALAR"},{"bufferView":0,"byteOffset":2342232,"componentType":5123,"count":4474,"type":"VEC3","min":[3749,0,2315],"max":[12121,1072,10354]},{"bufferView":1,"byteOffset":257652,"componentType":5123,"count":25500,"type":"SCALAR"},{"bufferView":0,"byteOffset":2378024,"componentType":5123,"count":1750,"type":"VEC3","min":[125,0,140],"max":[16092,1072,12551]},{"bufferView":1,"byteOffset":308652,"componentType":5123,"count":10884,"type":"SCALAR"},{"bufferView":0,"byteOffset":2392024,"componentType":5123,"count":1082,"type":"VEC3","min":[3566,0,2225],"max":[13105,1071,10434]},{"bufferView":1,"byteOffset":330420,"componentType":5123,"count":7224,"type":"SCALAR"},{"bufferView":0,"byteOffset":2400680,"componentType":5123,"count":14374,"type":"VEC3","min":[446,0,446],"max":[16313,1072,12223]},{"bufferView":1,"byteOffset":344868,"componentType":5123,"count":81849,"type":"SCALAR"},{"bufferView":0,"byteOffset":2515672,"componentType":5123,"count":23966,"type":"VEC3","min":[0,0,0],"max":[16383,1072,12669]},{"bufferView":1,"byteOffset":508566,"componentType":5123,"count":88140,"type":"SCALAR"},{"bufferView":0,"byteOffset":2707400,"componentType":5123,"count":170,"type":"VEC3","min":[6320,0,5357],"max":[11246,1071,9156]},{"bufferView":1,"byteOffset":684846,"componentType":5123,"count":1044,"type":"SCALAR"},{"bufferView":0,"byteOffset":2708760,"componentType":5123,"count":11433,"type":"VEC3","min":[466,193,466],"max":[15762,1072,12203]},{"bufferView":1,"byteOffset":686934,"componentType":5123,"count":60108,"type":"SCALAR"},{"bufferView":0,"byteOffset":2800224,"componentType":5123,"count":3149,"type":"VEC3","min":[446,0,446],"max":[15782,1072,12328]},{"bufferView":1,"byteOffset":807150,"componentType":5123,"count":16659,"type":"SCALAR"},{"bufferView":0,"byteOffset":2825416,"componentType":5123,"count":6350,"type":"VEC3","min":[466,228,449],"max":[15777,1072,12221]},{"bufferView":1,"byteOffset":840468,"componentType":5123,"count":33390,"type":"SCALAR"},{"bufferView":0,"byteOffset":2876216,"componentType":5123,"count":332,"type":"VEC3","min":[426,0,426],"max":[15802,1072,12243]},{"bufferView":1,"byteOffset":907248,"componentType":5123,"count":1914,"type":"SCALAR"},{"bufferView":0,"byteOffset":2878872,"componentType":5123,"count":5070,"type":"VEC3","min":[446,0,446],"max":[16323,1072,12223]},{"bufferView":1,"byteOffset":911076,"componentType":5123,"count":32868,"type":"SCALAR"},{"bufferView":0,"byteOffset":2919432,"componentType":5123,"count":248,"type":"VEC3","min":[549,0,546],"max":[15857,153,12120]},{"bufferView":1,"byteOffset":976812,"componentType":5123,"count":1116,"type":"SCALAR"},{"bufferView":0,"byteOffset":2921416,"componentType":5123,"count":9961,"type":"VEC3","min":[446,0,446],"max":[15872,1071,12223]},{"bufferView":1,"byteOffset":979044,"componentType":5123,"count":51558,"type":"SCALAR"},{"bufferView":0,"byteOffset":3001104,"componentType":5123,"count":144,"type":"VEC3","min":[3701,0,2095],"max":[12349,53,10346]},{"bufferView":1,"byteOffset":1082160,"componentType":5123,"count":504,"type":"SCALAR"},{"bufferView":0,"byteOffset":3002256,"componentType":5123,"count":8,"type":"VEC3","min":[3516,0,8452],"max":[3566,53,8662]},{"bufferView":1,"byteOffset":1083168,"componentType":5123,"count":36,"type":"SCALAR"},{"bufferView":0,"byteOffset":3002320,"componentType":5123,"count":2169,"type":"VEC3","min":[536,163,536],"max":[15691,1071,12133]},{"bufferView":1,"byteOffset":1083240,"componentType":5123,"count":13626,"type":"SCALAR"},{"bufferView":0,"byteOffset":3019672,"componentType":5123,"count":89,"type":"VEC3","min":[526,53,526],"max":[16243,196,12143]},{"bufferView":1,"byteOffset":1110492,"componentType":5123,"count":381,"type":"SCALAR"},{"bufferView":0,"byteOffset":3020384,"componentType":5123,"count":48,"type":"VEC3","min":[296,0,296],"max":[15932,554,12373]},{"bufferView":1,"byteOffset":1111254,"componentType":5123,"count":216,"type":"SCALAR"},{"bufferView":0,"byteOffset":3020768,"componentType":5123,"count":435,"type":"VEC3","min":[3744,203,2255],"max":[15105,1026,8536]},{"bufferView":1,"byteOffset":1111686,"componentType":5123,"count":2841,"type":"SCALAR"},{"bufferView":0,"byteOffset":3024248,"componentType":5123,"count":436,"type":"VEC3","min":[3794,0,2255],"max":[15067,1071,10414]},{"bufferView":1,"byteOffset":1117368,"componentType":5123,"count":2448,"type":"SCALAR"},{"bufferView":0,"byteOffset":3027736,"componentType":5123,"count":38,"type":"VEC3","min":[6736,0,6385],"max":[9442,53,6400]},{"bufferView":1,"byteOffset":1122264,"componentType":5123,"count":156,"type":"SCALAR"},{"bufferView":0,"byteOffset":3028040,"componentType":5123,"count":8,"type":"VEC3","min":[606,0,4342],"max":[3593,0,8317]},{"bufferView":1,"byteOffset":1122576,"componentType":5123,"count":12,"type":"SCALAR"},{"bufferView":0,"byteOffset":3028104,"componentType":5123,"count":122,"type":"VEC3","min":[446,0,596],"max":[15782,53,12328]},{"bufferView":1,"byteOffset":1122600,"componentType":5123,"count":288,"type":"SCALAR"},{"bufferView":0,"byteOffset":3029080,"componentType":5123,"count":33,"type":"VEC3","min":[3804,0,596],"max":[5408,53,2288]},{"bufferView":1,"byteOffset":1123176,"componentType":5123,"count":138,"type":"SCALAR"},{"bufferView":0,"byteOffset":3029344,"componentType":5123,"count":32,"type":"VEC3","min":[12246,50,6946],"max":[14902,829,8329]},{"bufferView":1,"byteOffset":1123452,"componentType":5123,"count":120,"type":"SCALAR"},{"bufferView":0,"byteOffset":3029600,"componentType":5123,"count":8,"type":"VEC3","min":[14862,153,526],"max":[15701,196,2080]},{"bufferView":1,"byteOffset":1123692,"componentType":5123,"count":30,"type":"SCALAR"},{"bufferView":0,"byteOffset":3029664,"componentType":5123,"count":24,"type":"VEC3","min":[3601,1071,3157],"max":[8378,1071,9514]},{"bufferView":1,"byteOffset":1123752,"componentType":5123,"count":36,"type":"SCALAR"},{"bufferView":0,"byteOffset":3029856,"componentType":5123,"count":28,"type":"VEC3","min":[11346,0,5994],"max":[14952,1071,8339]},{"bufferView":1,"byteOffset":1123824,"componentType":5123,"count":144,"type":"SCALAR"},{"bufferView":0,"byteOffset":3030080,"componentType":5123,"count":51514,"type":"VEC3","min":[608,155,604],"max":[15610,365,12063]},{"bufferView":1,"byteOffset":1124112,"componentType":5123,"count":303687,"type":"SCALAR"},{"bufferView":0,"byteOffset":3442192,"componentType":5123,"count":75760,"type":"VEC3","min":[592,0,595],"max":[15626,1071,12079]},{"bufferView":2,"byteOffset":5790540,"componentType":5125,"count":422817,"type":"SCALAR"},{"bufferView":0,"byteOffset":4048272,"componentType":5123,"count":17604,"type":"VEC3","min":[2824,253,2957],"max":[12454,604,9707]},{"bufferView":1,"byteOffset":1731486,"componentType":5123,"count":87960,"type":"SCALAR"},{"bufferView":0,"byteOffset":4189104,"componentType":5123,"count":5376,"type":"VEC3","min":[2978,349,2964],"max":[12447,522,9700]},{"bufferView":1,"byteOffset":1907406,"componentType":5123,"count":29184,"type":"SCALAR"},{"bufferView":0,"byteOffset":4232112,"componentType":5123,"count":9642,"type":"VEC3","min":[2939,383,2975],"max":[12435,517,9689]},{"bufferView":1,"byteOffset":1965774,"componentType":5123,"count":46968,"type":"SCALAR"},{"bufferView":0,"byteOffset":4309248,"componentType":5123,"count":13686,"type":"VEC3","min":[592,0,588],"max":[15620,1071,12079]},{"bufferView":1,"byteOffset":2059710,"componentType":5123,"count":66150,"type":"SCALAR"},{"bufferView":0,"byteOffset":4418736,"componentType":5123,"count":564,"type":"VEC3","min":[12470,733,6979],"max":[12486,750,6994]},{"bufferView":1,"byteOffset":2192010,"componentType":5123,"count":2676,"type":"SCALAR"},{"bufferView":0,"byteOffset":4423248,"componentType":5123,"count":714,"type":"VEC3","min":[12270,553,6978],"max":[12493,748,6994]},{"bufferView":1,"byteOffset":2197362,"componentType":5123,"count":3558,"type":"SCALAR"},{"bufferView":0,"byteOffset":4428960,"componentType":5123,"count":56032,"type":"VEC3","min":[3056,151,2746],"max":[12589,1071,9957]},{"bufferView":1,"byteOffset":2204478,"componentType":5123,"count":334476,"type":"SCALAR"},{"bufferView":0,"byteOffset":4877216,"componentType":5123,"count":18979,"type":"VEC3","min":[3751,0,4089],"max":[12361,1071,8583]},{"bufferView":1,"byteOffset":2873430,"componentType":5123,"count":105114,"type":"SCALAR"},{"bufferView":0,"byteOffset":5029048,"componentType":5123,"count":2708,"type":"VEC3","min":[5568,0,5257],"max":[14256,654,7758]},{"bufferView":1,"byteOffset":3083658,"componentType":5123,"count":15750,"type":"SCALAR"},{"bufferView":0,"byteOffset":5050712,"componentType":5123,"count":60,"type":"VEC3","min":[11351,504,5257],"max":[11401,554,5317]},{"bufferView":1,"byteOffset":3115158,"componentType":5123,"count":312,"type":"SCALAR"}],"materials":[{"name":"03 Изоляция_УТПмв_Утеплитель_минераловатный  Н_90 кг/м3","pbrMetallicRoughness":{"baseColorFactor":[0.988235295,0.972549021,0.913725495,1],"metallicFactor":0}},{"name":"03 Изоляция_УТПмв_Утеплитель_Rockwool ВЕНТИ БАТТС Н 37 кг/м3","pbrMetallicRoughness":{"baseColorFactor":[0.988235295,0.90196079,0.80392158,1],"metallicFactor":0}},{"name":"02 Кладка_ПГБ_Пазогребневый блок - 100 мм","pbrMetallicRoughness":{"baseColorFactor":[0.843137264,0.843137264,0.843137264,1],"metallicFactor":0}},{"name":"04 Отделка_КЛЕ Клей для блоков (от20кг на 1м3 блока)","pbrMetallicRoughness":{"baseColorFactor":[0.470588237,0.470588237,0.470588237,1],"metallicFactor":0}},{"name":"02 Кладка_ГБЛ_Газосиликат_D600_В 5,0","pbrMetallicRoughness":{"baseColorFactor":[0.882352948,0.882352948,0.882352948,1],"metallicFactor":0}},{"name":"02 Кладка_ГКЛВ_2 слоя_25 мм","pbrMetallicRoughness":{"baseColorFactor":[0.960784316,0.960784316,0.960784316,1],"metallicFactor":0}},{"name":"02 Кладка_ПГБвст_ Пазогребневый блок_влаг. - 80 мм","pbrMetallicRoughness":{"baseColorFactor":[0.90196079,0.90196079,0.90196079,1],"metallicFactor":0}},{"name":"08 ВЗ_Воздушный зазор","pbrMetallicRoughness":{"baseColorFactor":[0.933333337,0.984313726,0.992156863,0.669999957],"metallicFactor":0,"roughnessFactor":0.5},"alphaMode":"BLEND"},{"name":"04 Отделка_Стены_КРС_Вододисперсионная краска за 1 раз (обои под покраску).","pbrMetallicRoughness":{"baseColorFactor":[0.968627453,0.97647059,0.937254906,1],"metallicFactor":0}},{"name":"06 Древесина_ДРВ_Береза мореная_Двери","pbrMetallicRoughness":{"baseColorFactor":[0.847058833,0.68235296,0.43921569,1],"metallicFactor":0}},{"name":"05 Металл_СТЛ_Отлив_RAL 8016","pbrMetallicRoughness":{"baseColorFactor":[0.501960814,0.250980407,0.250980407,1],"metallicFactor":0}},{"name":"04 Отделка_Стены_КРС_Межкварт корид серая RAL 7036","pbrMetallicRoughness":{"baseColorFactor":[0.337254912,0.337254912,0.337254912,1],"metallicFactor":0}},{"name":"02 Кладка_Кирпич полнотелый М150_F75","pbrMetallicRoughness":{"baseColorFactor":[0.925490201,0.713725507,0.58431375,1],"metallicFactor":0}},{"name":"05 Металл_СТЛ_Отлив_RAL 7024 Графитовый_серый","pbrMetallicRoughness":{"baseColorFactor":[0.356862754,0.372549027,0.400000006,1],"metallicFactor":0}},{"name":"05 Металл_Сибалюкс Алюминиевая композитная панель","pbrMetallicRoughness":{"baseColorFactor":[0.819607854,0.670588255,0.603921592,1],"metallicFactor":0}},{"name":"MD_04 Отделка_КРГ_Керамогранитная плитка","pbrMetallicRoughness":{"baseColorFactor":[0.678431392,0.701960802,0.745098054,1],"metallicFactor":0}},{"name":"07 Стекло_СТК_Стекло по ГОСТ","pbrMetallicRoughness":{"baseColorFactor":[0.717647076,0.75686276,0.815686285,0.610000014],"metallicFactor":0,"roughnessFactor":0.5},"alphaMode":"BLEND"},{"name":"08 Цвет_RAL 9003_Сигнальный белый","pbrMetallicRoughness":{"baseColorFactor":[0.956862748,0.972549021,0.956862748,1],"metallicFactor":0}},{"name":"07 Стекло_СТК_Стекло закаленное однокамерное","pbrMetallicRoughness":{"baseColorFactor":[0,0,0.0156862754,0.899999976],"metallicFactor":0,"roughnessFactor":0.5},"alphaMode":"BLEND"},{"name":"04 Отделка_ГРТ_Бетонконтакт","pbrMetallicRoughness":{"baseColorFactor":[0.686274529,0.188235298,0.274509817,1],"metallicFactor":0}},{"name":"01 Бетон_МЖБ_В30 W8 F200","pbrMetallicRoughness":{"baseColorFactor":[0.752941191,0.752941191,0.752941191,1],"metallicFactor":0}},{"name":"ADSK_Утеплитель_Полистирол вспениваемый ВПС","pbrMetallicRoughness":{"baseColorFactor":[1,0.501960814,0,1],"metallicFactor":0}},{"name":"ххх_Изоляция_ТепловыеБарьеры","pbrMetallicRoughness":{"baseColorFactor":[0.498039216,0.498039216,0.498039216,1],"metallicFactor":0}},{"name":"05 Металл_СТЛ_Сталь","pbrMetallicRoughness":{"baseColorFactor":[0.97647059,0.97647059,0.97647059,1],"metallicFactor":0}},{"name":"MD_Минеральная вата 175 кг/м.куб","pbrMetallicRoughness":{"baseColorFactor":[0.980392158,0.70588237,0.392156869,1],"metallicFactor":0}},{"name":"04 Отделка_ПВХ плинтус_70мм","pbrMetallicRoughness":{"baseColorFactor":[0.968627453,0.984313726,0.960784316,1],"metallicFactor":0}},{"name":"03 Изоляция_Пароизоляция_типа Техобарьер","pbrMetallicRoughness":{"baseColorFactor":[0.203921571,0.137254909,0.80392158,1],"metallicFactor":0}},{"name":"05 Металл_Сибалюкс Алюминиевая композитная панель_RAL 7016","pbrMetallicRoughness":{"baseColorFactor":[0.313725501,0.313725501,0.313725501,1],"metallicFactor":0}},{"name":"04 Отделка_Пол_КРГ_Тип 1.1_Керамогранитная плитка 600*600 межкварт коридор","pbrMetallicRoughness":{"metallicFactor":0}},{"name":"04 Отделка_Пол_КРГ_Тип 1.1_Керамогранитная плитка 600*600 межквартирн, лифтхол, лестни","pbrMetallicRoughness":{"baseColorFactor":[0.858823538,0.858823538,0.858823538,1],"metallicFactor":0}},{"name":"04 Отделка_Стены_КРС_Вододисперсионная краска за 2 раза (RAL 9 темносерая","pbrMetallicRoughness":{"baseColorFactor":[0.203921571,0.227450982,0.211764708,1],"metallicFactor":0}},{"name":"04 Отделка_ГКЛ_перфорированный (Акустик)","pbrMetallicRoughness":{"baseColorFactor":[0.968627453,0.968627453,0.968627453,1],"metallicFactor":0}},{"name":"03 Изоляция_УТПмп_Утеплитель_Минераловатный _Техновент ОПТИМА 90 кг/м3 (или аналог)","pbrMetallicRoughness":{"baseColorFactor":[0.968627453,0.925490201,0.749019623,1],"metallicFactor":0}},{"name":"03 Изоляция_УТПмв_Утеплитель_Технофас Оптима_120 кг/м3 (или аналог)","pbrMetallicRoughness":{"baseColorFactor":[0.988235295,0.862745106,0.694117665,1],"metallicFactor":0}},{"name":"Аналитическая поверхность - потолки 11 огнеза","pbrMetallicRoughness":{"baseColorFactor":[1,1,1,0.5],"metallicFactor":0,"roughnessFactor":0.5},"alphaMode":"BLEND"},{"name":"03 Изоляция_ГРЛ_Гидроизоляция на цементной осонове с заведением 200 мм на стену","pbrMetallicRoughness":{"baseColorFactor":[0,0,0,1],"metallicFactor":0}},{"name":"ADSK_Изоляция_Воздух","pbrMetallicRoughness":{"baseColorFactor":[1,1,1,0],"metallicFactor":0,"roughnessFactor":0.5},"alphaMode":"BLEND"},{"name":"03 Изоляция_УТПмв_Утеплитель_Мин.плитаЗвукоиз ρ≥110 кг/м.куб. 100 мм","pbrMetallicRoughness":{"baseColorFactor":[0.952941179,0.945098042,0.811764717,1],"metallicFactor":0}},{"name":"Uponor Aqua Pipe Труба белая PN10","pbrMetallicRoughness":{"baseColorFactor":[0.917647064,0.917647064,0.917647064,1],"metallicFactor":0}},{"name":"Металл","pbrMetallicRoughness":{"baseColorFactor":[0.600000024,0.600000024,0.600000024,1],"metallicFactor":0}},{"name":"Хром","pbrMetallicRoughness":{"baseColorFactor":[0.956862748,0.956862748,0.956862748,1],"metallicFactor":0}},{"name":"Красная краска","pbrMetallicRoughness":{"baseColorFactor":[1,0,0,1],"metallicFactor":0}},{"name":"Uponor Покрытая Латунь","pbrMetallicRoughness":{"baseColorFactor":[0.776470602,0.768627465,0.741176486,1],"metallicFactor":0}},{"name":"05 Металл_МТЛ_Латунь","pbrMetallicRoughness":{"baseColorFactor":[0.670588255,0.580392182,0.580392182,1],"metallicFactor":0}},{"name":"Danfoss_Красный","pbrMetallicRoughness":{"baseColorFactor":[0.835294127,0.105882354,0.0901960805,1],"metallicFactor":0}},{"name":"Danfoss Латунь с никел покрытием","pbrMetallicRoughness":{"baseColorFactor":[0.964705884,0.933333337,0.792156875,1],"metallicFactor":0}},{"name":"Energoflex® Super Protect","pbrMetallicRoughness":{"baseColorFactor":[0.607843161,0.733333349,0.349019617,0.5],"metallicFactor":0,"roughnessFactor":0.5},"alphaMode":"BLEND"},{"name":"ADSK_Предупреждение","pbrMetallicRoughness":{"baseColorFactor":[1,0,0,0.199999988],"metallicFactor":0,"roughnessFactor":0.5},"alphaMode":"BLEND"},{"name":"ADSK_Бетон_Железобетон сборный","pbrMetallicRoughness":{"baseColorFactor":[0.725490212,0.78039217,0.784313738,1],"metallicFactor":0}},{"name":"ADSK_Металл_Сталь литейная","pbrMetallicRoughness":{"baseColorFactor":[0.733333349,0.725490212,0.784313738,1],"metallicFactor":0}}],"meshes":[{"primitives":[{"attributes":{"POSITION":0},"indices":1,"material":0},{"attributes":{"POSITION":2},"indices":3,"material":1},{"attributes":{"POSITION":4},"indices":5,"material":2},{"attributes":{"POSITION":6},"indices":7,"material":3},{"attributes":{"POSITION":8},"indices":9,"material":4},{"attributes":{"POSITION":10},"indices":11,"material":5},{"attributes":{"POSITION":12},"indices":13,"material":6},{"attributes":{"POSITION":14},"indices":15,"material":7},{"attributes":{"POSITION":16},"indices":17,"material":8},{"attributes":{"POSITION":18},"indices":19,"material":9},{"attributes":{"POSITION":20},"indices":21,"material":10},{"attributes":{"POSITION":22},"indices":23,"material":11},{"attributes":{"POSITION":24},"indices":25,"material":12},{"attributes":{"POSITION":26},"indices":27,"material":13},{"attributes":{"POSITION":28},"indices":29,"material":14},{"attributes":{"POSITION":30},"indices":31,"material":15},{"attributes":{"POSITION":32},"indices":33,"material":16},{"attributes":{"POSITION":34},"indices":35,"material":17},{"attributes":{"POSITION":36},"indices":37,"material":18},{"attributes":{"POSITION":38},"indices":39,"material":19},{"attributes":{"POSITION":40},"indices":41,"material":20},{"attributes":{"POSITION":42},"indices":43,"material":21},{"attributes":{"POSITION":44},"indices":45,"material":22},{"attributes":{"POSITION":46},"indices":47,"material":23},{"attributes":{"POSITION":48},"indices":49,"material":24},{"attributes":{"POSITION":50},"indices":51,"material":25},{"attributes":{"POSITION":52},"indices":53,"material":26},{"attributes":{"POSITION":54},"indices":55,"material":27},{"attributes":{"POSITION":56},"indices":57,"material":28},{"attributes":{"POSITION":58},"indices":59,"material":29},{"attributes":{"POSITION":60},"indices":61,"material":30},{"attributes":{"POSITION":62},"indices":63,"material":31},{"attributes":{"POSITION":64},"indices":65,"material":32},{"attributes":{"POSITION":66},"indices":67,"material":33},{"attributes":{"POSITION":68},"indices":69,"material":34},{"attributes":{"POSITION":70},"indices":71,"material":35},{"attributes":{"POSITION":72},"indices":73,"material":36},{"attributes":{"POSITION":74},"indices":75,"material":37},{"attributes":{"POSITION":76},"indices":77,"material":38},{"attributes":{"POSITION":78},"indices":79,"material":39},{"attributes":{"POSITION":80},"indices":81,"material":40},{"attributes":{"POSITION":82},"indices":83,"material":41},{"attributes":{"POSITION":84},"indices":85,"material":42},{"attributes":{"POSITION":86},"indices":87,"material":43},{"attributes":{"POSITION":88},"indices":89,"material":44},{"attributes":{"POSITION":90},"indices":91,"material":45},{"attributes":{"POSITION":92},"indices":93,"material":46},{"attributes":{"POSITION":94},"indices":95,"material":47},{"attributes":{"POSITION":96},"indices":97,"material":48},{"attributes":{"POSITION":98},"indices":99,"material":49}]}],"nodes":[{"mesh":0,"translation":[-15.8991766,7.09510326,-14.8073597],"scale":[0.00199536118,0.00199536118,0.00199536118]}],"scenes":[{"nodes":[0]}]}