{"buffers":[{"uri":"kr_dav.bin","byteLength":2937432}],"asset":{"version":"2.0","generator":"gltfpack 0.20"},"extensionsUsed":["KHR_mesh_quantization"],"extensionsRequired":["KHR_mesh_quantization"],"bufferViews":[{"buffer":0,"byteOffset":0,"byteLength":706192,"byteStride":8,"target":34962},{"buffer":0,"byteOffset":706192,"byteLength":186510,"target":34963},{"buffer":0,"byteOffset":892704,"byteLength":2044728,"target":34963}],"accessors":[{"bufferView":0,"byteOffset":0,"componentType":5123,"count":3877,"type":"VEC3","min":[0,0,0],"max":[9695,2168,3419]},{"bufferView":1,"byteOffset":0,"componentType":5123,"count":30711,"type":"SCALAR"},{"bufferView":0,"byteOffset":31016,"componentType":5123,"count":1774,"type":"VEC3","min":[0,1363,0],"max":[9695,2419,3419]},{"bufferView":1,"byteOffset":61422,"componentType":5123,"count":12576,"type":"SCALAR"},{"bufferView":0,"byteOffset":45208,"componentType":5123,"count":9376,"type":"VEC3","min":[312,1913,508],"max":[8263,14706,3348]},{"bufferView":1,"byteOffset":86574,"componentType":5123,"count":42192,"type":"SCALAR"},{"bufferView":0,"byteOffset":120216,"componentType":5123,"count":71541,"type":"VEC3","min":[240,0,36],"max":[9695,16383,3419]},{"bufferView":2,"byteOffset":0,"componentType":5125,"count":511182,"type":"SCALAR"},{"bufferView":0,"byteOffset":692544,"componentType":5123,"count":1706,"type":"VEC3","min":[276,14006,80],"max":[9695,16205,3384]},{"bufferView":1,"byteOffset":170958,"componentType":5123,"count":7776,"type":"SCALAR"}],"materials":[{"name":"01 Бетон_МЖБ_В30 W6 F150","pbrMetallicRoughness":{"baseColorFactor":[1,0.647058845,0,1],"metallicFactor":0}},{"name":"01 Бетон_МЖБ_В30 W4 F100","pbrMetallicRoughness":{"baseColorFactor":[0.854901969,0.43921569,0.839215696,1],"metallicFactor":0}},{"name":"ADSK_Утеплитель_Полистирол вспениваемый ВПС","pbrMetallicRoughness":{"baseColorFactor":[1,0.501960814,0,1],"metallicFactor":0}},{"name":"01 Бетон_МЖБ_В25 W4 F100","pbrMetallicRoughness":{"baseColorFactor":[0.509803951,0.521568656,0.466666669,1],"metallicFactor":0}},{"name":"03_Изоляция_ТепловыеБарьеры","pbrMetallicRoughness":{"baseColorFactor":[0.498039216,0.498039216,0.498039216,1],"metallicFactor":0}}],"meshes":[{"primitives":[{"attributes":{"POSITION":0},"indices":1,"material":0},{"attributes":{"POSITION":2},"indices":3,"material":1},{"attributes":{"POSITION":4},"indices":5,"material":2},{"attributes":{"POSITION":6},"indices":7,"material":3},{"attributes":{"POSITION":8},"indices":9,"material":4}]}],"nodes":[{"mesh":0,"translation":[-32.5337524,1.29677343,-9.61897945],"scale":[0.00561569398,0.00561569398,0.00561569398]}],"scenes":[{"nodes":[0]}]}