{"buffers":[{"uri":"kr_dav.bin","byteLength":4178156}],"asset":{"version":"2.0","generator":"gltfpack 0.20"},"extensionsUsed":["KHR_mesh_quantization"],"extensionsRequired":["KHR_mesh_quantization"],"bufferViews":[{"buffer":0,"byteOffset":0,"byteLength":1002824,"byteStride":8,"target":34962},{"buffer":0,"byteOffset":1002824,"byteLength":271884,"target":34963},{"buffer":0,"byteOffset":1274708,"byteLength":2903448,"target":34963}],"accessors":[{"bufferView":0,"byteOffset":0,"componentType":5123,"count":5452,"type":"VEC3","min":[0,0,0],"max":[14280,2168,3419]},{"bufferView":1,"byteOffset":0,"componentType":5123,"count":42840,"type":"SCALAR"},{"bufferView":0,"byteOffset":43616,"componentType":5123,"count":2618,"type":"VEC3","min":[0,1363,0],"max":[14264,2419,3419]},{"bufferView":1,"byteOffset":85680,"componentType":5123,"count":18474,"type":"SCALAR"},{"bufferView":0,"byteOffset":64560,"componentType":5123,"count":14048,"type":"VEC3","min":[312,1913,508],"max":[14228,14706,3348]},{"bufferView":1,"byteOffset":122628,"componentType":5123,"count":63216,"type":"SCALAR"},{"bufferView":0,"byteOffset":176944,"componentType":5123,"count":100735,"type":"VEC3","min":[240,0,0],"max":[14299,16383,3419]},{"bufferView":2,"byteOffset":0,"componentType":5125,"count":725862,"type":"SCALAR"},{"bufferView":0,"byteOffset":982824,"componentType":5123,"count":2500,"type":"VEC3","min":[276,14006,0],"max":[14264,16205,3384]},{"bufferView":1,"byteOffset":249060,"componentType":5123,"count":11412,"type":"SCALAR"}],"materials":[{"name":"01 Бетон_МЖБ_В30 W6 F150","pbrMetallicRoughness":{"baseColorFactor":[1,0.647058845,0,1],"metallicFactor":0}},{"name":"01 Бетон_МЖБ_В30 W4 F100","pbrMetallicRoughness":{"baseColorFactor":[0.854901969,0.43921569,0.839215696,1],"metallicFactor":0}},{"name":"ADSK_Утеплитель_Полистирол вспениваемый ВПС","pbrMetallicRoughness":{"baseColorFactor":[1,0.501960814,0,1],"metallicFactor":0}},{"name":"01 Бетон_МЖБ_В25 W4 F100","pbrMetallicRoughness":{"baseColorFactor":[0.509803951,0.521568656,0.466666669,1],"metallicFactor":0}},{"name":"03_Изоляция_ТепловыеБарьеры","pbrMetallicRoughness":{"baseColorFactor":[0.498039216,0.498039216,0.498039216,1],"metallicFactor":0}}],"meshes":[{"primitives":[{"attributes":{"POSITION":0},"indices":1,"material":0},{"attributes":{"POSITION":2},"indices":3,"material":1},{"attributes":{"POSITION":4},"indices":5,"material":2},{"attributes":{"POSITION":6},"indices":7,"material":3},{"attributes":{"POSITION":8},"indices":9,"material":4}]}],"nodes":[{"mesh":0,"translation":[-40.7279167,1.29677343,-9.61897945],"scale":[0.00561569398,0.00561569398,0.00561569398]}],"scenes":[{"nodes":[0]}]}